<svg xmlns="http://www.w3.org/2000/svg" viewBox="0 0 128 128"><defs><linearGradient id="g" x1="0" x2="1" y1="0" y2="1"><stop stop-color="#ffd166"/><stop offset=".45" stop-color="#ef4444"/><stop offset="1" stop-color="#7c3aed"/></linearGradient></defs><rect width="128" height="128" rx="28" fill="#090c13"/><path d="M20 78h53l12-13h20c5 0 10 4 11 9l5 20h-20l-4-11H82L67 99H47l13-17H29c-8 0-10-4-9-4z" fill="url(#g)"/><path d="M34 55h35l12-18h24L88 55h18c9 0 16 6 16 14H22c0-8 6-14 12-14z" fill="#fff" opacity=".22"/><text x="64" y="39" fill="#fff" font-family="Arial" font-size="25" font-weight="900" text-anchor="middle">LAB</text></svg>
