<svg xmlns="http://www.w3.org/2000/svg" viewBox="0 0 760 320"><defs><linearGradient id="r" x1="0" x2="1"><stop stop-color="#1f2937"/><stop offset=".5" stop-color="#ef4444"/><stop offset="1" stop-color="#111827"/></linearGradient><filter id="s"><feDropShadow dx="0" dy="22" stdDeviation="18" flood-color="#000" flood-opacity=".55"/></filter></defs><rect width="760" height="320" rx="34" fill="#0b1020"/><circle cx="130" cy="75" r="120" fill="#ef4444" opacity=".12"/><g filter="url(#s)" transform="translate(50 68)"><path d="M40 120h335l26-32h120c32 0 58 18 72 46l24 47h-90l-14-30h-100l-43 48h-84l44-49H160l-33 35H42l34-45H34c-26 0-31-20 6-20z" fill="url(#r)"/><path d="M122 80h210l32-42h82l-32 42h130c34 0 54 16 62 40H84c4-24 16-40 38-40z" fill="#e5e7eb" opacity=".18"/><path d="M142 134h130M370 118h145M480 154h74" stroke="#ef4444" stroke-width="12" stroke-linecap="round"/><path d="M205 98h90M420 96h85" stroke="#0b1020" stroke-width="11" stroke-linecap="round" opacity=".6"/></g><text x="52" y="285" font-family="Inter,Arial" font-size="28" font-weight="900" fill="#f8fafc">AK-47 | Redline</text></svg>