<svg xmlns="http://www.w3.org/2000/svg" viewBox="0 0 800 560"><defs><linearGradient id="a" x1="0" y1="0" x2="1" y2="1"><stop stop-color="#ffbf47"/><stop offset=".52" stop-color="#ff7a18"/><stop offset="1" stop-color="#ff385c"/></linearGradient><radialGradient id="glow" cx="50%" cy="20%" r="70%"><stop stop-color="#ffd166" stop-opacity=".65"/><stop offset="1" stop-color="#111827" stop-opacity="0"/></radialGradient><filter id="s"><feDropShadow dx="0" dy="38" stdDeviation="24" flood-color="#000" flood-opacity=".58"/></filter></defs><rect width="800" height="560" rx="54" fill="#101827"/><circle cx="230" cy="120" r="220" fill="url(#glow)"/><g filter="url(#s)"><path d="M146 210h508c30 0 54 24 54 54v170c0 30-24 54-54 54H146c-30 0-54-24-54-54V264c0-30 24-54 54-54z" fill="#0c1220" stroke="#263247" stroke-width="13"/><path d="M242 210v-48c0-50 38-88 88-88h140c50 0 88 38 88 88v48" fill="none" stroke="#8796ad" stroke-width="28" stroke-linecap="round"/><rect x="142" y="262" width="516" height="150" rx="20" fill="url(#a)"/><path d="M142 300h516M142 352h516" stroke="#111827" stroke-width="10" opacity=".25"/><text x="400" y="366" text-anchor="middle" font-family="Inter,Arial" font-weight="950" font-size="96" fill="#0b1020">CS2</text></g><text x="400" y="508" text-anchor="middle" font-family="Inter,Arial" font-weight="900" font-size="34" fill="#f8fafc">Case Lab</text></svg>