<svg xmlns="http://www.w3.org/2000/svg" viewBox="0 0 760 320"><defs><linearGradient id="b" x1="0" x2="1"><stop stop-color="#22d3ee"/><stop offset=".45" stop-color="#8b5cf6"/><stop offset="1" stop-color="#f43f5e"/></linearGradient><filter id="s"><feDropShadow dx="0" dy="24" stdDeviation="18" flood-color="#000" flood-opacity=".58"/></filter></defs><rect width="760" height="320" rx="34" fill="#0b1020"/><circle cx="600" cy="100" r="160" fill="#8b5cf6" opacity=".13"/><g filter="url(#s)" transform="translate(92 42)"><path d="M78 158C112 70 213 28 327 40c-61 20-116 55-161 104 62-24 142-28 236-14 53 8 107 13 164 3-42 46-100 78-175 96-103 25-205 6-313-71z" fill="url(#b)"/><path d="M92 156c74 53 148 77 220 74" fill="none" stroke="#fff" stroke-opacity=".18" stroke-width="12" stroke-linecap="round"/><circle cx="84" cy="165" r="48" fill="none" stroke="#dbeafe" stroke-width="20"/><circle cx="84" cy="165" r="22" fill="#0b1020"/></g><text x="48" y="285" font-family="Inter,Arial" font-size="28" font-weight="900" fill="#f8fafc">★ Karambit | Doppler</text></svg>